<svg id="visual" viewBox="0 0 900 600" width="900" height="600" xmlns="http://www.w3.org/2000/svg" xmlns:xlink="http://www.w3.org/1999/xlink" version="1.1"><rect x="0" y="0" width="900" height="600" fill="#fff"></rect><defs><linearGradient id="grad1_0" x1="33.3%" y1="100%" x2="100%" y2="0%"><stop offset="20%" stop-color="#001220" stop-opacity="1"></stop><stop offset="80%" stop-color="#001220" stop-opacity="1"></stop></linearGradient></defs><defs><linearGradient id="grad2_0" x1="0%" y1="100%" x2="66.7%" y2="0%"><stop offset="20%" stop-color="#001220" stop-opacity="1"></stop><stop offset="80%" stop-color="#001220" stop-opacity="1"></stop></linearGradient></defs><g transform="translate(900, 600)"><path d="M-189.3 0C-178.2 -21.9 -167.2 -43.8 -158 -65.4C-148.8 -87.1 -141.5 -108.5 -128 -128C-114.5 -147.5 -94.8 -165 -72.4 -174.9C-50.1 -184.8 -25 -187 0 -189.3L0 0Z" fill="#c2e9ff"></path></g><g transform="translate(0, 0)"><path d="M189.3 0C173.2 20.6 157.1 41.3 146 60.5C134.8 79.6 128.6 97.4 118.1 118.1C107.6 138.8 92.8 162.5 72.4 174.9C52 187.2 26 188.3 0 189.3L0 0Z" fill="#c2e9ff"></path></g></svg>