<svg id="visual" viewBox="0 0 900 600" width="900" height="600" xmlns="http://www.w3.org/2000/svg" xmlns:xlink="http://www.w3.org/1999/xlink" version="1.1"><rect x="0" y="0" width="900" height="600" fill="#0f1523"></rect><defs><linearGradient id="grad1_0" x1="33.3%" y1="100%" x2="100%" y2="0%"><stop offset="20%" stop-color="#0f1523" stop-opacity="1"></stop><stop offset="80%" stop-color="#0f1523" stop-opacity="1"></stop></linearGradient></defs><defs><linearGradient id="grad2_0" x1="0%" y1="100%" x2="66.7%" y2="0%"><stop offset="20%" stop-color="#0f1523" stop-opacity="1"></stop><stop offset="80%" stop-color="#0f1523" stop-opacity="1"></stop></linearGradient></defs><g transform="translate(900, 600)"><path d="M-135.2 0C-123.6 -13.5 -111.9 -27.1 -107.2 -44.4C-102.4 -61.7 -104.5 -82.8 -95.6 -95.6C-86.7 -108.4 -66.8 -113 -49 -118.3C-31.2 -123.5 -15.6 -129.3 0 -135.2L0 0Z" fill="#c2e9ff"></path></g><g transform="translate(0, 0)"><path d="M135.2 0C127.7 15.7 120.1 31.5 113.6 47.1C107.2 62.7 101.8 78.1 91.9 91.9C82.1 105.8 67.8 118 51.7 124.9C35.7 131.9 17.8 133.5 0 135.2L0 0Z" fill="#c2e9ff"></path></g></svg>