<svg id="visual" viewBox="0 0 900 600" width="900" height="600" xmlns="http://www.w3.org/2000/svg" xmlns:xlink="http://www.w3.org/1999/xlink" version="1.1"><rect x="0" y="0" width="900" height="600" fill="#fff"></rect><path d="M0 516L30 508.2C60 500.3 120 484.7 180 486C240 487.3 300 505.7 360 502.8C420 500 480 476 540 477C600 478 660 504 720 506.3C780 508.7 840 487.3 870 476.7L900 466L900 601L870 601C840 601 780 601 720 601C660 601 600 601 540 601C480 601 420 601 360 601C300 601 240 601 180 601C120 601 60 601 30 601L0 601Z" fill="#c2e9ff" stroke-linecap="round" stroke-linejoin="miter"></path></svg>