<svg id="visual" viewBox="0 0 900 600" width="900" height="600" xmlns="http://www.w3.org/2000/svg" xmlns:xlink="http://www.w3.org/1999/xlink" version="1.1"><rect x="0" y="0" width="900" height="600" fill="#0f1523"></rect><path d="M0 542L21.5 542.7C43 543.3 86 544.7 128.8 539.3C171.7 534 214.3 522 257.2 521.8C300 521.7 343 533.3 385.8 540.8C428.7 548.3 471.3 551.7 514.2 548.5C557 545.3 600 535.7 642.8 537.2C685.7 538.7 728.3 551.3 771.2 553C814 554.7 857 545.3 878.5 540.7L900 536L900 601L878.5 601C857 601 814 601 771.2 601C728.3 601 685.7 601 642.8 601C600 601 557 601 514.2 601C471.3 601 428.7 601 385.8 601C343 601 300 601 257.2 601C214.3 601 171.7 601 128.8 601C86 601 43 601 21.5 601L0 601Z" fill="#fff" stroke-linecap="round" stroke-linejoin="miter"></path></svg>