<svg id="visual" viewBox="0 0 900 600" width="900" height="600" xmlns="http://www.w3.org/2000/svg" xmlns:xlink="http://www.w3.org/1999/xlink" version="1.1"><rect x="0" y="0" width="900" height="600" fill="#0f1523"></rect><path d="M0 538L21.5 539.2C43 540.3 86 542.7 128.8 547.3C171.7 552 214.3 559 257.2 563C300 567 343 568 385.8 563C428.7 558 471.3 547 514.2 541.2C557 535.3 600 534.7 642.8 538C685.7 541.3 728.3 548.7 771.2 552.3C814 556 857 556 878.5 556L900 556L900 601L878.5 601C857 601 814 601 771.2 601C728.3 601 685.7 601 642.8 601C600 601 557 601 514.2 601C471.3 601 428.7 601 385.8 601C343 601 300 601 257.2 601C214.3 601 171.7 601 128.8 601C86 601 43 601 21.5 601L0 601Z" fill="#fff" stroke-linecap="round" stroke-linejoin="miter"></path></svg>