<svg id="visual" viewBox="0 0 900 600" width="900" height="600" xmlns="http://www.w3.org/2000/svg" xmlns:xlink="http://www.w3.org/1999/xlink" version="1.1"><rect x="0" y="0" width="900" height="600" fill="#0f1523"></rect><path d="M0 529L21.5 527.8C43 526.7 86 524.3 128.8 529.2C171.7 534 214.3 546 257.2 545.5C300 545 343 532 385.8 532.3C428.7 532.7 471.3 546.3 514.2 553.7C557 561 600 562 642.8 554.3C685.7 546.7 728.3 530.3 771.2 524.5C814 518.7 857 523.3 878.5 525.7L900 528L900 601L878.5 601C857 601 814 601 771.2 601C728.3 601 685.7 601 642.8 601C600 601 557 601 514.2 601C471.3 601 428.7 601 385.8 601C343 601 300 601 257.2 601C214.3 601 171.7 601 128.8 601C86 601 43 601 21.5 601L0 601Z" fill="#fff" stroke-linecap="round" stroke-linejoin="miter"></path></svg>