<svg id="visual" viewBox="0 0 900 600" width="900" height="600" xmlns="http://www.w3.org/2000/svg" xmlns:xlink="http://www.w3.org/1999/xlink" version="1.1"><rect x="0" y="0" width="900" height="600" fill="#fff"></rect><path d="M0 485L30 492.3C60 499.7 120 514.3 180 514.7C240 515 300 501 360 493C420 485 480 483 540 488C600 493 660 505 720 504.2C780 503.3 840 489.7 870 482.8L900 476L900 601L870 601C840 601 780 601 720 601C660 601 600 601 540 601C480 601 420 601 360 601C300 601 240 601 180 601C120 601 60 601 30 601L0 601Z" fill="#c2e9ff" stroke-linecap="round" stroke-linejoin="miter"></path></svg>