<svg id="visual" viewBox="0 0 900 600" width="900" height="600" xmlns="http://www.w3.org/2000/svg" xmlns:xlink="http://www.w3.org/1999/xlink" version="1.1"><rect x="0" y="0" width="900" height="600" fill="#10131f"></rect><path d="M0 541L21.5 536.7C43 532.3 86 523.7 128.8 527.2C171.7 530.7 214.3 546.3 257.2 545.7C300 545 343 528 385.8 520.8C428.7 513.7 471.3 516.3 514.2 522.2C557 528 600 537 642.8 540.8C685.7 544.7 728.3 543.3 771.2 537.8C814 532.3 857 522.7 878.5 517.8L900 513L900 601L878.5 601C857 601 814 601 771.2 601C728.3 601 685.7 601 642.8 601C600 601 557 601 514.2 601C471.3 601 428.7 601 385.8 601C343 601 300 601 257.2 601C214.3 601 171.7 601 128.8 601C86 601 43 601 21.5 601L0 601Z" fill="#fff" stroke-linecap="round" stroke-linejoin="miter"></path></svg>