<svg id="visual" viewBox="0 0 900 600" width="900" height="600" xmlns="http://www.w3.org/2000/svg" xmlns:xlink="http://www.w3.org/1999/xlink" version="1.1"><rect x="0" y="0" width="900" height="600" fill="#002233"></rect><path d="M0 476L21.5 483.3C43 490.7 86 505.3 128.8 515.5C171.7 525.7 214.3 531.3 257.2 532.5C300 533.7 343 530.3 385.8 515.2C428.7 500 471.3 473 514.2 471.5C557 470 600 494 642.8 506.2C685.7 518.3 728.3 518.7 771.2 510.2C814 501.7 857 484.3 878.5 475.7L900 467L900 601L878.5 601C857 601 814 601 771.2 601C728.3 601 685.7 601 642.8 601C600 601 557 601 514.2 601C471.3 601 428.7 601 385.8 601C343 601 300 601 257.2 601C214.3 601 171.7 601 128.8 601C86 601 43 601 21.5 601L0 601Z" fill="#0066FF" stroke-linecap="round" stroke-linejoin="miter"></path></svg>