<svg id="visual" viewBox="0 0 900 600" width="900" height="600" xmlns="http://www.w3.org/2000/svg" xmlns:xlink="http://www.w3.org/1999/xlink" version="1.1"><rect x="0" y="0" width="900" height="600" fill="#002233"></rect><path d="M0 507L21.5 512.5C43 518 86 529 128.8 536.5C171.7 544 214.3 548 257.2 548.8C300 549.7 343 547.3 385.8 536C428.7 524.7 471.3 504.3 514.2 503.2C557 502 600 520 642.8 529.2C685.7 538.3 728.3 538.7 771.2 532.3C814 526 857 513 878.5 506.5L900 500L900 601L878.5 601C857 601 814 601 771.2 601C728.3 601 685.7 601 642.8 601C600 601 557 601 514.2 601C471.3 601 428.7 601 385.8 601C343 601 300 601 257.2 601C214.3 601 171.7 601 128.8 601C86 601 43 601 21.5 601L0 601Z" fill="#0066FF" stroke-linecap="round" stroke-linejoin="miter"></path></svg>