<svg xmlns="http://www.w3.org/2000/svg" viewBox="0 0 252.79 198.92"><defs><style>.cls-1{isolation:isolate;}.cls-2{fill:#c5c7c9;}.cls-11,.cls-3,.cls-6,.cls-7{fill:#fff;}.cls-3{stroke:#fff;stroke-miterlimit:10;}.cls-4{opacity:0.5;mix-blend-mode:color;}.cls-5,.cls-6{font-size:44px;}.cls-5,.cls-8{fill:#989797;}.cls-11,.cls-5,.cls-6,.cls-8{font-family:Kartika;}.cls-11,.cls-8{font-size:30px;}.cls-9{letter-spacing:0em;}.cls-10{letter-spacing:0em;}</style></defs><g class="cls-1"><g id="Layer_2" data-name="Layer 2"><g id="Layer_1-2" data-name="Layer 1"><path class="cls-2" d="M68.1,68.87l7-.36c1.59,5.93,10.43,4.73,14,7.78q4.77,4,13,4,7.8,0,11.87-3.9a11.29,11.29,0,0,0,3.45-8.49q0-7.56-6-10.09-.81-.34-21.61-6.76-16-4.93-16-20.76,0-11.58,8.32-18.23,7.41-5.85,18.16-5.85c7.91,0,15,1.6,19.58,6.65,4.35,4.85,4.78,7.64,4.78,7.64l-13.47,5s-1.52-7.61-11.4-7.61A16.57,16.57,0,0,0,91,20.1a9.46,9.46,0,0,0-4.47,8.49q0,7.92,8.63,10.49c5.74,1.72,12.46,3.53,20.64,6.05a20.7,20.7,0,0,1,10.91,8.8,23.24,23.24,0,0,1,3.45,12.39q0,12.84-9,19.72-7.81,6-19.78,6-13.2,0-21.21-7C74.23,79.89,72.46,78.56,68.1,68.87Z"/><path class="cls-2" d="M141.19,90.05V8.18h12.68V77.67H190.7V90.05Z"/><path class="cls-3" d="M61,63.14l15.23-3.36c1.58,5.93,2.22,7.73,5.8,10.79q4.77,4,13,4,7.81,0,11.87-3.9a11.29,11.29,0,0,0,3.45-8.49q0-7.56-6-10.09-.81-.35-21.61-6.76-16-4.94-16-20.76Q66.7,13,75,6.35,82.43.5,93.18.5q11.88,0,19.58,6.65c5.48,4.82,6.91,9.56,6.91,9.56l-12.82,4.16s-4.3-8.67-14.17-8.67a16.52,16.52,0,0,0-8.83,2.18,9.43,9.43,0,0,0-4.47,8.48q0,7.92,8.63,10.49c5.75,1.72,12.46,3.53,20.65,6a20.76,20.76,0,0,1,10.9,8.8A23.24,23.24,0,0,1,123,60.59q0,12.84-9,19.72-7.82,6-19.78,6-13.2,0-21.21-7C67.11,74.16,65.34,72.83,61,63.14Z"/><path class="cls-3" d="M134.07,84.33V2.45h12.68V71.94h36.83V84.33Z"/><g id="SOLLERS_Group" data-name="SOLLERS Group"><g class="cls-4"><text class="cls-5" transform="translate(26.52 141.86) scale(1.18 1)">SOLLERS</text></g><text class="cls-6" transform="translate(23.68 139.02) scale(1.18 1)">SOLLERS</text></g><path class="cls-7" d="M2.81,182c.07,1.37.1,5.69.1,6.9s0,2.12-.07,2.66h0C4,188.44,5.36,185,6.59,182H9.38v5.82c0,.54,0,2.66-.09,3.74h0c.46-1.24.9-2.38,4-9.56H16L9.79,195H7.26V191.7c0-2.18.07-5,.14-6.86h0c-.89,2.5-1.3,3.46-4,10.19H.88L0,182Z"/><path class="cls-7" d="M28.93,192.19a5.15,5.15,0,0,1-4.71,3.09c-2.18,0-3.78-.9-3.78-3.51,0-1.6.85-6.68,5.69-6.68,2.18,0,3.55,1,3.55,3.3a11.76,11.76,0,0,1-.36,2.48H23a4,4,0,0,0-.09.76c0,.75.31,1.62,1.74,1.62a2,2,0,0,0,1.78-1.06Zm-1.8-3a3.47,3.47,0,0,0,0-.42,1.45,1.45,0,0,0-1.51-1.62,2.47,2.47,0,0,0-2.34,2Z"/><path class="cls-7" d="M51.44,185.34l-.3,1.43h0a3.53,3.53,0,0,1,3-1.68,2.08,2.08,0,0,1,2.27,1.55,3.7,3.7,0,0,1,2.81-1.55,2.32,2.32,0,0,1,2.63,2.4c0,.25,0,.7-1.45,7.54H58c1.27-6.07,1.3-6.41,1.3-6.62,0-.87-.45-1.17-1-1.17-1.23,0-1.85.84-2.08,2L55,195H52.53a63.91,63.91,0,0,0,1.28-6.54c0-.64-.26-1.25-1.16-1.25-1.14,0-1.68.8-1.9,1.85L49.53,195H47.09l2-9.69Z"/><path class="cls-7" d="M69.8,188.48c.88-3,3-3.39,4.85-3.39,1.2,0,3.21.34,3.21,2.2a2.72,2.72,0,0,1-.07.61l-1.07,5.24a4.73,4.73,0,0,0-.11.83c0,.45.16.59.33.66l-.07.4H74.24a3.63,3.63,0,0,1,0-.54,5,5,0,0,1,0-.61,4.69,4.69,0,0,1-3.3,1.4,2.06,2.06,0,0,1-2.32-2.1c0-2.74,2.53-3.86,5.11-4.07,1.06-.09,1.63-.4,1.63-1.14s-.79-.84-1.42-.84a1.72,1.72,0,0,0-1.78,1.35Zm3.33,2.36c-1.3.19-2,.73-2,1.74a.85.85,0,0,0,.94.88,2.65,2.65,0,0,0,2.58-1.9l.26-1.25A4.4,4.4,0,0,1,73.13,190.84Z"/><path class="cls-7" d="M88.18,189,92,185.34h3l-4,3.75L93.12,195H90.19l-1.37-4.16L87.57,192,87,195H84.5L87.17,182h2.45Z"/><path class="cls-7" d="M109.19,192.19a5.16,5.16,0,0,1-4.72,3.09c-2.18,0-3.77-.9-3.77-3.51,0-1.6.84-6.68,5.68-6.68,2.18,0,3.55,1,3.55,3.3a11.76,11.76,0,0,1-.36,2.48h-6.33a5.07,5.07,0,0,0-.08.76c0,.75.31,1.62,1.73,1.62a2,2,0,0,0,1.79-1.06Zm-1.8-3c0-.1,0-.35,0-.42a1.45,1.45,0,0,0-1.51-1.62,2.47,2.47,0,0,0-2.34,2Z"/><path class="cls-7" d="M129.8,195h-2.44l2-9.69h2.45ZM132,184.21h-2.44l.48-2.36h2.45Z"/><path class="cls-7" d="M143.07,182.75l-.54,2.61h1.52l-.36,1.82h-1.52c-1,4.92-1.13,5.46-1.13,5.62s.19.41.92.41l.5,0-.38,1.9c-.35,0-.78.06-1.16.06-2,0-2.48-.54-2.48-1.39,0-.29.08-.74,1.28-6.57h-1.25l.37-1.82h1.24l.54-2.61Z"/><path class="cls-7" d="M165,186.6h0a3.66,3.66,0,0,1,3-1.51,2.34,2.34,0,0,1,2.65,2.41c0,.26-.05.69-1.45,7.53h-2.45c1.25-6.12,1.3-6.39,1.3-6.66,0-.58-.24-1.13-1.3-1.13a2.51,2.51,0,0,0-2.39,2.25L163.26,195h-2.44L163.49,182h2.44Z"/><path class="cls-7" d="M178.57,188.48c.89-3,3-3.39,4.86-3.39,1.19,0,3.2.34,3.2,2.2a2.24,2.24,0,0,1-.07.61l-1.07,5.24a4.53,4.53,0,0,0-.1.83c0,.45.15.59.32.66l-.06.4H183a3.85,3.85,0,0,1,0-.54,5.28,5.28,0,0,1,0-.61,4.69,4.69,0,0,1-3.29,1.4,2.07,2.07,0,0,1-2.33-2.1c0-2.74,2.54-3.86,5.12-4.07,1.06-.09,1.63-.4,1.63-1.14s-.8-.84-1.42-.84a1.73,1.73,0,0,0-1.79,1.35Zm3.33,2.36c-1.3.19-2,.73-2,1.74a.85.85,0,0,0,.93.88,2.67,2.67,0,0,0,2.59-1.9l.26-1.25A4.53,4.53,0,0,1,181.9,190.84Z"/><path class="cls-7" d="M197.35,186.75h0a3.78,3.78,0,0,1,3.12-1.66c1.72,0,3,1.17,3,3.48,0,3.09-1.93,6.71-5.19,6.71a2.11,2.11,0,0,1-2.3-1.49l-.05,0-1.06,5.15H192.5l2.79-13.58h2.35Zm-.82,4.46c0,1,.35,2,1.53,2,2,0,2.88-2.26,2.88-4.05,0-1-.38-1.85-1.6-1.85C197.52,187.29,196.53,189.43,196.53,191.21Z"/><path class="cls-7" d="M214.13,186.75h0a3.75,3.75,0,0,1,3.12-1.66c1.71,0,3,1.17,3,3.48,0,3.09-1.92,6.71-5.18,6.71a2.11,2.11,0,0,1-2.31-1.49l-.05,0-1.06,5.15h-2.44l2.79-13.58h2.36Zm-.81,4.46c0,1,.34,2,1.52,2,2,0,2.88-2.26,2.88-4.05,0-1-.38-1.85-1.6-1.85C214.3,187.29,213.32,189.43,213.32,191.21Z"/><path class="cls-7" d="M235.71,192.19a5.15,5.15,0,0,1-4.71,3.09c-2.18,0-3.78-.9-3.78-3.51,0-1.6.85-6.68,5.69-6.68,2.18,0,3.55,1,3.55,3.3a11.76,11.76,0,0,1-.36,2.48h-6.33a4,4,0,0,0-.09.76c0,.75.32,1.62,1.74,1.62a2,2,0,0,0,1.78-1.06Zm-1.8-3a3.47,3.47,0,0,0,0-.42,1.45,1.45,0,0,0-1.51-1.62,2.47,2.47,0,0,0-2.34,2Z"/><path class="cls-7" d="M247.26,185.34l-.29,1.43h0a3.86,3.86,0,0,1,3.14-1.68,2.34,2.34,0,0,1,2.65,2.41c0,.26,0,.69-1.45,7.53h-2.45c1.25-6.12,1.3-6.39,1.3-6.66,0-.58-.24-1.13-1.3-1.13a2.51,2.51,0,0,0-2.39,2.25L245.37,195h-2.44l2-9.69Z"/><g class="cls-4"><text class="cls-8" transform="translate(76.07 173.06) scale(1.18 1)">G<tspan class="cls-9" x="19.38" y="0">R</tspan><tspan class="cls-10" x="35.61" y="0">OUP</tspan></text></g><text class="cls-11" transform="translate(73.24 170.23) scale(1.18 1)">G<tspan class="cls-9" x="19.38" y="0">R</tspan><tspan class="cls-10" x="35.61" y="0">OUP</tspan></text></g></g></g></svg>