<svg xmlns="http://www.w3.org/2000/svg" viewBox="0 0 1792.58 1926.14"><defs><style>.cls-1{fill:#e4e9f4;}.cls-2{fill:#b8c0d3;}.cls-3{fill:#d0d5e2;}.cls-4{fill:#0d1830;}.cls-5{fill:none;}.cls-6{fill:#9fa7b7;}.cls-7{fill:#050b16;}.cls-8{fill:#1e2e60;}.cls-9{fill:#132142;}.cls-10{fill:#32b4ff;}.cls-11{fill:#fff;}</style></defs><g id="Layer_2" data-name="Layer 2"><g id="Objects"><ellipse class="cls-1" cx="896.29" cy="1896.57" rx="787.81" ry="29.56"/><path class="cls-2" d="M1254.47,1826.48s-153.31-75.57-153.31-226.28l-.09-31.75H691.13l.28,31.75c0,150.71-153.31,226.28-153.31,226.28Z"/><path class="cls-3" d="M1792.58,1405.44l-28.37-31.2H22.69L0,1405.44v122.65a72.12,72.12,0,0,0,72.11,72.11H1720.46a72.12,72.12,0,0,0,72.12-72.11Z"/><path class="cls-4" d="M1792.58,1405.44H0V385.55a72.12,72.12,0,0,1,72.11-72.11H1720.46a72.12,72.12,0,0,1,72.12,72.11Z"/><rect class="cls-3" x="417.51" y="1821.17" width="957.55" height="75.4" rx="37.7"/><polyline class="cls-5" points="896.29 1896.57 896.29 1405.44 896.29 313.44"/><path class="cls-6" d="M1244.8,1821.17H896.29v-221h204.88C1101.17,1727.84,1211.13,1801.59,1244.8,1821.17Z"/><path class="cls-2" d="M1792.58,1405.44v122.64a72.11,72.11,0,0,1-72.11,72.12H896.29V1405.44Z"/><path class="cls-7" d="M1792.58,385.55V1405.44H896.29v-1092h824.18A72.12,72.12,0,0,1,1792.58,385.55Z"/><path class="cls-2" d="M1375.06,1858.87a37.69,37.69,0,0,1-37.7,37.7H896.29v-75.4h441.07A37.71,37.71,0,0,1,1375.06,1858.87Z"/><path class="cls-8" d="M1406.42,744.73c-48.31,209.3-218.72,423.45-510.13,505-291.41-81.52-461.82-295.67-510.13-505C339,540.59,353.6,325.35,407.5,122.76,580.28,148.58,765.74,102.38,896.29,0c130.54,102.38,316,148.58,488.78,122.76C1439,325.35,1453.55,540.59,1406.42,744.73Z"/><path class="cls-9" d="M1406.42,744.73c-48.31,209.3-218.72,423.45-510.13,505V0c130.54,102.38,316,148.58,488.78,122.76C1439,325.35,1453.55,540.59,1406.42,744.73Z"/><path class="cls-10" d="M1347.51,731.13a566.3,566.3,0,0,1-53.45,140.68,617.63,617.63,0,0,1-95.46,131.76,655.55,655.55,0,0,1-137.7,110.49c-50.29,30.34-105.67,54.79-164.61,72.66-58.93-17.87-114.32-42.32-164.62-72.65A656.11,656.11,0,0,1,594,1003.57a617.29,617.29,0,0,1-95.46-131.76,566.15,566.15,0,0,1-53.45-140.68c-21.48-93.06-30.13-192.44-25.72-295.38,3.45-80.49,14.94-163.65,34.13-247.21,16.51,1.14,33.22,1.72,49.7,1.72a734,734,0,0,0,229.07-36.54c59.57-19.54,114.75-46.15,164-79.11,49.28,33,104.46,59.57,164,79.11a734,734,0,0,0,229.07,36.54c16.48,0,33.18-.58,49.69-1.72,19.2,83.56,30.68,166.72,34.14,247.21C1377.64,538.69,1369,638.07,1347.51,731.13Z"/><path class="cls-10" d="M1347.51,731.13a566.3,566.3,0,0,1-53.45,140.68,617.63,617.63,0,0,1-95.46,131.76,655.55,655.55,0,0,1-137.7,110.49c-50.29,30.34-105.67,54.79-164.61,72.66V74.61c49.28,33,104.46,59.57,164,79.11a734,734,0,0,0,229.07,36.54c16.48,0,33.18-.58,49.69-1.72,19.2,83.56,30.68,166.72,34.14,247.21C1377.64,538.69,1369,638.07,1347.51,731.13Z"/><path class="cls-11" d="M1050.92,577.35A218.69,218.69,0,0,0,677.6,732c0,120.77,97.92,218.68,218.69,218.68a218.68,218.68,0,0,0,154.63-373.31ZM923.45,752.75l7.44,45.82a11.79,11.79,0,0,1-11.64,13.69H873.34a11.8,11.8,0,0,1-11.63-13.78L869.46,753a54.18,54.18,0,1,1,54-.2Z"/><path class="cls-11" d="M1012.76,387.1a23,23,0,1,1-46,0,70.47,70.47,0,0,0-140.94,0v94.6a242,242,0,0,0-46,19.21V387.1a116.47,116.47,0,0,1,232.94,0Z"/></g></g></svg>