<svg xmlns="http://www.w3.org/2000/svg" viewBox="0 0 226.14 178"><defs><style>.cls-1{isolation:isolate;}.cls-2{fill:#c5c7c9;}.cls-10,.cls-3,.cls-6,.cls-7{fill:#32b4ff;}.cls-3{stroke:#fff;stroke-miterlimit:10;}.cls-4{opacity:0.5;mix-blend-mode:overlay;}.cls-5,.cls-6{font-size:40px;}.cls-5,.cls-8{fill:#989797;}.cls-10,.cls-5,.cls-6,.cls-8{font-family:Kartika;}.cls-10,.cls-8{font-size:26.84px;}.cls-9{letter-spacing:0em;}</style></defs><g class="cls-1"><g id="Layer_2" data-name="Layer 2"><g id="Layer_1-2" data-name="Layer 1"><path class="cls-2" d="M60.92,61.66l6.28-.32c1.42,5.31,9.33,4.23,12.54,7Q84,71.9,91.36,71.89q7,0,10.62-3.48a10.14,10.14,0,0,0,3.08-7.6q0-6.77-5.35-9-.73-.32-19.33-6.06Q66,41.33,66,27.17q0-10.37,7.44-16.31Q80.1,5.63,89.72,5.62c7.08,0,13.47,1.43,17.52,6,3.89,4.33,4.28,6.83,4.28,6.83l-12,4.49s-1.36-6.81-10.2-6.81A14.79,14.79,0,0,0,81.38,18a8.43,8.43,0,0,0-4,7.59q0,7.08,7.72,9.39c5.14,1.53,11.15,3.15,18.47,5.41a18.56,18.56,0,0,1,9.75,7.87,20.73,20.73,0,0,1,3.09,11.08q0,11.49-8.08,17.64-7,5.34-17.7,5.34-11.79,0-19-6.26C66.4,71.52,64.82,70.33,60.92,61.66Z"/><path class="cls-2" d="M126.3,80.61V7.37h11.35V69.53h32.94V80.61Z"/><path class="cls-3" d="M54.56,56.54l13.62-3c1.42,5.31,2,6.91,5.19,9.65Q77.65,66.76,85,66.77q7,0,10.62-3.49a10.07,10.07,0,0,0,3.09-7.59q0-6.76-5.36-9-.72-.3-19.33-6Q59.67,36.2,59.67,22q0-10.35,7.44-16.31Q73.74.5,83.36.5q10.62,0,17.52,6c4.9,4.31,6.18,8.55,6.18,8.55L95.59,18.72S91.74,11,82.9,11A14.84,14.84,0,0,0,75,12.91a8.43,8.43,0,0,0-4,7.59q0,7.08,7.72,9.39c5.14,1.54,11.15,3.16,18.47,5.41A18.58,18.58,0,0,1,107,43.17,20.86,20.86,0,0,1,110,54.25Q110,65.74,102,71.9q-7,5.32-17.69,5.33-11.8,0-19-6.26C60,66.39,58.45,65.21,54.56,56.54Z"/><path class="cls-3" d="M119.94,75.49V2.24h11.34V64.41h32.95V75.49Z"/><g id="SOLLERS_Group" data-name="SOLLERS Group"><g class="cls-4"><text class="cls-5" transform="translate(24.02 127.25) scale(1.18 1)">SOLLERS</text></g><text class="cls-6" transform="translate(21.19 124.42) scale(1.18 1)">SOLLERS</text></g><path class="cls-7" d="M2.51,162.83c.06,1.22.1,5.09.1,6.17s0,1.9-.07,2.38h0c1-2.75,2.22-5.8,3.32-8.55h2.5V168c0,.48,0,2.38-.08,3.35h0c.42-1.11.81-2.13,3.58-8.55h2.39L8.76,174.52H6.5v-3c0-1.95.06-4.49.12-6.14h0c-.79,2.24-1.16,3.1-3.6,9.12H.79L0,162.83Z"/><path class="cls-7" d="M25.88,172a4.63,4.63,0,0,1-4.21,2.77c-2,0-3.38-.81-3.38-3.14,0-1.44.76-6,5.08-6,2,0,3.18.92,3.18,3a10.51,10.51,0,0,1-.32,2.22H20.57a3.34,3.34,0,0,0-.08.68c0,.67.28,1.45,1.55,1.45a1.81,1.81,0,0,0,1.6-1Zm-1.61-2.66a2.51,2.51,0,0,0,0-.37A1.29,1.29,0,0,0,23,167.5a2.21,2.21,0,0,0-2.09,1.82Z"/><path class="cls-7" d="M46,165.86l-.27,1.27h0a3.17,3.17,0,0,1,2.67-1.5,1.86,1.86,0,0,1,2,1.39A3.28,3.28,0,0,1,53,165.63a2.07,2.07,0,0,1,2.36,2.14c0,.23-.05.63-1.3,6.75H51.86C53,169.09,53,168.79,53,168.59c0-.77-.4-1-.91-1-1.1,0-1.66.75-1.86,1.78l-1.07,5.19H47a58.53,58.53,0,0,0,1.15-5.85c0-.58-.23-1.12-1-1.12-1,0-1.5.72-1.7,1.66l-1.09,5.31H42.12l1.79-8.66Z"/><path class="cls-7" d="M62.44,168.66c.79-2.66,2.64-3,4.34-3,1.07,0,2.87.31,2.87,2a2.17,2.17,0,0,1-.06.54l-1,4.69a4.47,4.47,0,0,0-.1.74c0,.4.14.53.3.6l-.06.35H66.41a3,3,0,0,1,0-.48,4.33,4.33,0,0,1,0-.55,4.18,4.18,0,0,1-2.95,1.26,1.85,1.85,0,0,1-2.07-1.89c0-2.45,2.26-3.44,4.57-3.64,1-.08,1.46-.35,1.46-1s-.72-.76-1.27-.76a1.55,1.55,0,0,0-1.6,1.21Zm3,2.11c-1.16.18-1.79.66-1.79,1.56a.77.77,0,0,0,.84.79,2.38,2.38,0,0,0,2.31-1.71L67,170.3A3.89,3.89,0,0,1,65.42,170.77Z"/><path class="cls-7" d="M78.88,169.14l3.43-3.28H85l-3.61,3.35,1.92,5.31H80.68l-1.23-3.72-1.11,1-.56,2.74H75.59L78,162.83h2.19Z"/><path class="cls-7" d="M97.68,172a4.64,4.64,0,0,1-4.22,2.77c-1.95,0-3.38-.81-3.38-3.14,0-1.44.76-6,5.08-6,2,0,3.18.92,3.18,3A10.51,10.51,0,0,1,98,170.8H92.36a4.24,4.24,0,0,0-.08.68c0,.67.28,1.45,1.55,1.45a1.81,1.81,0,0,0,1.6-1Zm-1.62-2.66a2.6,2.6,0,0,0,0-.37,1.29,1.29,0,0,0-1.35-1.45,2.22,2.22,0,0,0-2.1,1.82Z"/><path class="cls-7" d="M116.12,174.52h-2.19l1.78-8.66h2.19Zm2-9.68h-2.18l.43-2.11h2.19Z"/><path class="cls-7" d="M128,163.54l-.48,2.33h1.37l-.33,1.63h-1.36c-.93,4.4-1,4.88-1,5s.17.37.82.37a2.56,2.56,0,0,0,.45,0l-.34,1.71c-.31,0-.7.05-1,.05-1.75,0-2.22-.48-2.22-1.24,0-.26.08-.66,1.15-5.88h-1.12l.33-1.63h1.12l.48-2.33Z"/><path class="cls-7" d="M147.59,167h0a3.26,3.26,0,0,1,2.7-1.35,2.1,2.1,0,0,1,2.37,2.16c0,.22-.05.61-1.3,6.73H149.2c1.12-5.48,1.16-5.72,1.16-6,0-.51-.21-1-1.16-1a2.25,2.25,0,0,0-2.14,2l-1,5h-2.19l2.39-11.69h2.19Z"/><path class="cls-7" d="M159.75,168.66c.79-2.66,2.63-3,4.34-3,1.07,0,2.87.31,2.87,2a2.22,2.22,0,0,1-.07.54l-1,4.69a4.26,4.26,0,0,0-.09.74c0,.4.14.53.29.6l-.06.35h-2.35a3,3,0,0,1,0-.48,4.33,4.33,0,0,1,0-.55,4.2,4.2,0,0,1-2.95,1.26,1.86,1.86,0,0,1-2.08-1.89c0-2.45,2.27-3.44,4.58-3.64.94-.08,1.45-.35,1.45-1s-.71-.76-1.27-.76a1.56,1.56,0,0,0-1.6,1.21Zm3,2.11c-1.16.18-1.78.66-1.78,1.56a.76.76,0,0,0,.84.79,2.38,2.38,0,0,0,2.31-1.71l.23-1.11A4,4,0,0,1,162.72,170.77Z"/><path class="cls-7" d="M176.54,167.11h0a3.4,3.4,0,0,1,2.79-1.48c1.54,0,2.72,1.05,2.72,3.11,0,2.77-1.72,6-4.64,6a1.89,1.89,0,0,1-2.06-1.34l0,0-.94,4.61H172.2l2.5-12.14h2.11Zm-.73,4c0,.88.31,1.77,1.37,1.77,1.81,0,2.57-2,2.57-3.63,0-.93-.34-1.65-1.42-1.65C176.7,167.6,175.81,169.51,175.81,171.11Z"/><path class="cls-7" d="M191.55,167.11h0a3.37,3.37,0,0,1,2.79-1.48c1.53,0,2.71,1.05,2.71,3.11,0,2.77-1.72,6-4.64,6a1.89,1.89,0,0,1-2.06-1.34l0,0L189.4,178h-2.19l2.5-12.14h2.11Zm-.72,4c0,.88.31,1.77,1.36,1.77,1.82,0,2.58-2,2.58-3.63,0-.93-.35-1.65-1.43-1.65C191.71,167.6,190.83,169.51,190.83,171.11Z"/><path class="cls-7" d="M210.86,172a4.63,4.63,0,0,1-4.21,2.77c-2,0-3.38-.81-3.38-3.14,0-1.44.75-6,5.08-6,2,0,3.18.92,3.18,3a10.09,10.09,0,0,1-.33,2.22h-5.66a4.32,4.32,0,0,0-.07.68c0,.67.28,1.45,1.55,1.45a1.78,1.78,0,0,0,1.59-1Zm-1.61-2.66a2.51,2.51,0,0,0,0-.37,1.29,1.29,0,0,0-1.35-1.45,2.21,2.21,0,0,0-2.09,1.82Z"/><path class="cls-7" d="M221.19,165.86l-.26,1.27h0a3.44,3.44,0,0,1,2.81-1.5,2.1,2.1,0,0,1,2.37,2.16c0,.22,0,.61-1.3,6.73h-2.19c1.12-5.48,1.16-5.72,1.16-6,0-.51-.21-1-1.16-1a2.25,2.25,0,0,0-2.14,2l-1,5h-2.18l1.78-8.66Z"/><g class="cls-4"><text class="cls-8" transform="translate(68.35 155.17) scale(1.18 1)">G<tspan class="cls-9" x="17.34" y="0">R</tspan><tspan x="31.85" y="0">OUP</tspan></text></g><text class="cls-10" transform="translate(65.52 152.33) scale(1.18 1)">G<tspan class="cls-9" x="17.34" y="0">R</tspan><tspan x="31.85" y="0">OUP</tspan></text></g></g></g></svg>