<?xml version="1.0" encoding="utf-8"?>
<!-- Generator: Adobe Illustrator 16.0.3, SVG Export Plug-In . SVG Version: 6.00 Build 0)  -->
<!DOCTYPE svg PUBLIC "-//W3C//DTD SVG 1.1//EN" "http://www.w3.org/Graphics/SVG/1.1/DTD/svg11.dtd">
<svg version="1.1" id="Vrstva_1" xmlns="http://www.w3.org/2000/svg" xmlns:xlink="http://www.w3.org/1999/xlink" x="0px" y="0px"
	 width="253.155px" height="69.891px" viewBox="-0.522 13.428 253.155 69.891"
	 enable-background="new -0.522 13.428 253.155 69.891" xml:space="preserve">
<path fill="#333343" d="M109.096,57.055c-2.345-0.981-4.107-2.274-5.311-3.888c-1.202-1.604-1.854-3.367-1.924-5.271
	c0-0.301,0.101-0.551,0.331-0.802c0.2-0.23,0.48-0.351,0.802-0.351h4.989c0.401,0,0.731,0.1,1.002,0.271
	c0.241,0.18,0.481,0.441,0.702,0.762c0.36,1.242,1.202,2.284,2.505,3.126c1.282,0.842,3.066,1.263,5.33,1.263
	c2.556,0,4.489-0.421,5.782-1.283c1.303-0.852,1.943-2.034,1.943-3.537c0-1.002-0.32-1.804-0.972-2.475
	c-0.661-0.651-1.653-1.232-2.986-1.723c-1.332-0.481-3.307-1.072-5.951-1.774c-4.309-1.021-7.455-2.375-9.47-4.048
	c-2.004-1.703-3.006-4.108-3.006-7.244c0-2.125,0.581-4.008,1.744-5.671c1.162-1.653,2.835-2.956,5.01-3.908
	c2.174-0.952,4.709-1.422,7.585-1.422c3.036,0,5.661,0.521,7.866,1.583c2.204,1.062,3.907,2.385,5.04,3.968
	c1.152,1.603,1.763,3.176,1.843,4.75c0,0.301-0.12,0.551-0.34,0.802c-0.221,0.23-0.501,0.34-0.822,0.34h-5.21
	c-0.802,0-1.353-0.32-1.644-0.982c-0.181-1.172-0.901-2.144-2.134-2.936c-1.243-0.802-2.776-1.183-4.609-1.183
	c-2.004,0-3.587,0.381-4.739,1.152c-1.152,0.762-1.724,1.884-1.724,3.337c0,1.002,0.301,1.803,0.882,2.465
	c0.581,0.661,1.503,1.232,2.735,1.733c1.242,0.481,3.046,1.042,5.41,1.653c3.267,0.731,5.853,1.563,7.766,2.475
	c1.924,0.901,3.337,2.064,4.249,3.447c0.901,1.403,1.372,3.156,1.372,5.311c0,2.385-0.661,4.439-1.953,6.172
	c-1.303,1.733-3.127,3.057-5.481,3.968c-2.354,0.922-5.09,1.372-8.196,1.372c-3.286,0-6.112-0.5-8.437-1.482"/>
<path fill="#333343" d="M160.018,49.991c1.403-1.463,2.175-3.708,2.284-6.744c0.081-2.205,0.101-3.677,0.101-4.449
	c0-0.842-0.02-2.305-0.101-4.439c-0.1-3.006-0.901-5.23-2.354-6.713c-1.463-1.483-3.377-2.205-5.751-2.205
	c-2.425,0-4.359,0.722-5.812,2.205c-1.474,1.483-2.234,3.708-2.305,6.713c-0.04,1.062-0.061,2.545-0.061,4.439
	c0,1.864,0.021,3.347,0.05,4.439c0.07,2.986,0.822,5.21,2.265,6.713c1.443,1.473,3.387,2.205,5.842,2.205
	c2.436,0,4.369-0.721,5.812-2.184 M142.494,54.741c-2.776-2.525-4.239-6.273-4.39-11.243c-0.029-1.052-0.05-2.605-0.05-4.649
	c0-2.084,0.03-3.657,0.061-4.709c0.15-4.87,1.643-8.587,4.509-11.182c2.836-2.605,6.693-3.908,11.553-3.908
	c4.81,0,8.657,1.303,11.523,3.908c2.865,2.605,4.379,6.313,4.509,11.172c0.101,2.134,0.12,3.708,0.12,4.729
	c0,0.982-0.03,2.535-0.101,4.649c-0.149,4.97-1.623,8.717-4.408,11.242c-2.806,2.505-6.684,3.777-11.653,3.777
	c-5.01,0-8.918-1.263-11.684-3.777"/>
<path fill="#333343" d="M177.874,57.606c-0.26-0.25-0.4-0.562-0.4-0.932V21.003c0-0.401,0.13-0.742,0.37-1.002
	c0.23-0.25,0.542-0.38,0.952-0.38h23.848c0.401,0,0.722,0.13,0.972,0.38c0.261,0.261,0.381,0.602,0.381,1.002v3.917
	c0,0.371-0.12,0.681-0.381,0.932c-0.25,0.26-0.581,0.4-0.981,0.4h-17.535v10.291h16.433c0.401,0,0.731,0.13,1.002,0.38
	c0.241,0.261,0.371,0.571,0.371,0.932v3.948c0,0.361-0.12,0.681-0.371,0.932c-0.26,0.261-0.601,0.381-1.002,0.381h-16.433v13.527
	c0,0.381-0.12,0.701-0.381,0.942c-0.25,0.261-0.581,0.4-0.981,0.4h-4.93c-0.371,0-0.682-0.14-0.933-0.4"/>
<path fill="#333343" d="M210.199,57.606c-0.251-0.25-0.381-0.562-0.381-0.932V30.803c0-0.401,0.13-0.722,0.381-0.962
	c0.26-0.241,0.57-0.361,0.941-0.361h4.649c0.371,0,0.682,0.13,0.932,0.401c0.251,0.241,0.381,0.551,0.381,0.922v25.851
	c0,0.381-0.13,0.702-0.4,0.942c-0.241,0.261-0.552,0.401-0.922,0.401h-4.649c-0.371,0-0.682-0.141-0.942-0.401 M209.969,24.43
	c-0.251-0.241-0.381-0.551-0.381-0.922V19.5c0-0.401,0.13-0.721,0.381-0.972c0.26-0.261,0.57-0.401,0.941-0.401h5.04
	c0.401,0,0.731,0.14,0.982,0.401c0.271,0.25,0.4,0.581,0.4,0.982v4.008c0,0.371-0.141,0.682-0.421,0.932
	c-0.271,0.26-0.602,0.401-0.952,0.401h-5.04c-0.37,0-0.681-0.141-0.941-0.401"/>
<path fill="#333343" d="M225.379,57.606c-0.25-0.25-0.381-0.562-0.381-0.932V21.003c0-0.401,0.12-0.742,0.361-1.002
	c0.24-0.25,0.561-0.38,0.962-0.38h24.168c0.4,0,0.731,0.13,0.981,0.38c0.261,0.261,0.401,0.602,0.401,1.002v3.657
	c0,0.4-0.141,0.721-0.401,0.962c-0.25,0.25-0.581,0.36-0.981,0.36h-17.976v9.6h16.773c0.4,0,0.731,0.12,0.981,0.38
	c0.261,0.25,0.381,0.582,0.381,0.982v3.457c0,0.401-0.12,0.722-0.381,0.962c-0.25,0.24-0.581,0.361-0.981,0.361h-16.773v9.919
	h18.416c0.401,0,0.731,0.121,0.982,0.351c0.261,0.25,0.4,0.571,0.4,0.972v3.718c0,0.4-0.14,0.701-0.4,0.951
	c-0.251,0.23-0.581,0.351-0.982,0.351h-24.608c-0.361,0-0.672-0.12-0.933-0.381"/>
<path fill="#71717C" d="M103.646,77.446c-0.472-0.2-0.832-0.461-1.072-0.782c-0.251-0.33-0.381-0.681-0.401-1.071
	c0-0.061,0.03-0.101,0.07-0.161c0.05-0.039,0.101-0.06,0.171-0.06h1.021c0.08,0,0.15,0.021,0.2,0.06
	c0.051,0.031,0.101,0.101,0.141,0.15c0.08,0.251,0.24,0.461,0.501,0.632c0.271,0.171,0.631,0.261,1.103,0.261
	c0.501,0,0.901-0.101,1.162-0.261c0.261-0.181,0.4-0.401,0.4-0.722c0-0.2-0.08-0.36-0.2-0.501c-0.141-0.13-0.341-0.24-0.602-0.351
	c-0.28-0.1-0.681-0.2-1.222-0.341c-0.872-0.2-1.503-0.481-1.904-0.831c-0.421-0.331-0.621-0.822-0.621-1.463
	c0-0.432,0.101-0.802,0.351-1.143c0.24-0.341,0.581-0.602,1.022-0.802c0.431-0.2,0.951-0.28,1.533-0.28
	c0.601,0,1.142,0.1,1.603,0.32c0.441,0.201,0.782,0.48,1.002,0.802c0.241,0.32,0.371,0.642,0.381,0.962c0,0.061-0.02,0.1-0.06,0.16
	c-0.051,0.04-0.101,0.061-0.171,0.061h-1.052c-0.171,0-0.28-0.061-0.341-0.201c-0.03-0.23-0.181-0.431-0.431-0.601
	c-0.24-0.15-0.552-0.23-0.922-0.23c-0.401,0-0.731,0.08-0.962,0.23c-0.23,0.16-0.351,0.38-0.351,0.681
	c0,0.201,0.06,0.361,0.18,0.502c0.121,0.13,0.301,0.25,0.552,0.35c0.25,0.101,0.621,0.201,1.102,0.331
	c0.662,0.141,1.183,0.301,1.573,0.501c0.401,0.181,0.672,0.4,0.862,0.701c0.18,0.271,0.271,0.632,0.271,1.072
	c0,0.481-0.131,0.902-0.401,1.242c-0.25,0.361-0.621,0.622-1.102,0.803c-0.472,0.2-1.032,0.28-1.653,0.28
	c-0.672,0-1.232-0.101-1.704-0.301"/>
<path fill="#71717C" d="M111.071,74.791h2.505l-1.253-3.406L111.071,74.791z M108.686,77.576c-0.04-0.05-0.061-0.1-0.061-0.17
	l0.03-0.1l2.665-7.165c0.061-0.181,0.2-0.28,0.401-0.28h1.202c0.2,0,0.33,0.1,0.4,0.28l2.676,7.165l0.02,0.1
	c0,0.07-0.04,0.12-0.08,0.17c-0.05,0.041-0.1,0.061-0.16,0.061h-1.002c-0.15,0-0.25-0.061-0.301-0.2l-0.521-1.343h-3.287
	l-0.501,1.343c-0.07,0.14-0.18,0.2-0.33,0.2h-1.002c-0.061,0-0.101,0-0.161-0.051"/>
<path fill="#71717C" d="M116.782,77.556c-0.05-0.051-0.07-0.101-0.07-0.181v-7.234c0-0.08,0.021-0.15,0.07-0.2
	c0.05-0.051,0.101-0.08,0.2-0.08h4.81c0.101,0,0.161,0.029,0.201,0.08c0.06,0.05,0.1,0.12,0.1,0.2v0.802c0,0.07-0.04,0.141-0.1,0.2
	c-0.04,0.04-0.101,0.07-0.201,0.07h-3.537v2.084h3.327c0.08,0,0.15,0.021,0.2,0.07c0.05,0.06,0.08,0.12,0.08,0.2v0.802
	c0,0.06-0.03,0.13-0.08,0.181c-0.05,0.05-0.12,0.08-0.2,0.08h-3.327v2.745c0,0.08-0.029,0.141-0.08,0.2
	c-0.05,0.051-0.12,0.07-0.2,0.07h-1.002c-0.07,0-0.141,0-0.2-0.07"/>
<path fill="#71717C" d="M123.145,77.556c-0.061-0.051-0.101-0.101-0.101-0.181v-7.234c0-0.08,0.04-0.15,0.101-0.2
	c0.029-0.051,0.1-0.08,0.18-0.08h4.91c0.07,0,0.13,0.029,0.2,0.08c0.04,0.05,0.061,0.12,0.061,0.2v0.741
	c0,0.101-0.021,0.15-0.07,0.201c-0.061,0.05-0.12,0.07-0.2,0.07h-3.647v1.943h3.406c0.07,0,0.141,0.02,0.201,0.07
	c0.05,0.061,0.069,0.12,0.069,0.2v0.701c0,0.081-0.02,0.15-0.08,0.2c-0.05,0.041-0.12,0.07-0.2,0.07h-3.407v2.004h3.748
	c0.08,0,0.141,0.03,0.2,0.07c0.05,0.04,0.07,0.101,0.07,0.201v0.74c0,0.081-0.021,0.15-0.07,0.201c-0.06,0.04-0.12,0.061-0.2,0.061
	h-4.99c-0.07,0-0.14,0-0.2-0.07"/>
<path fill="#71717C" d="M136.02,76.023c0.301-0.301,0.441-0.762,0.461-1.373c0.03-0.44,0.04-0.741,0.04-0.901
	c0-0.171,0-0.472-0.03-0.901c0-0.602-0.17-1.053-0.46-1.354c-0.301-0.301-0.702-0.451-1.173-0.451c-0.501,0-0.882,0.15-1.172,0.451
	c-0.301,0.301-0.451,0.752-0.472,1.363c0,0.2,0,0.501,0,0.901c0,0.371,0,0.671,0,0.901c0.021,0.602,0.171,1.053,0.461,1.354
	c0.281,0.301,0.682,0.431,1.173,0.431c0.501,0,0.901-0.14,1.183-0.44 M132.483,76.964c-0.551-0.5-0.852-1.271-0.871-2.273
	c0-0.23-0.021-0.541-0.021-0.963c0-0.42,0.021-0.73,0.03-0.951c0.02-1.002,0.33-1.744,0.901-2.275
	c0.581-0.521,1.363-0.801,2.345-0.801c0.982,0,1.754,0.28,2.335,0.801c0.581,0.531,0.901,1.283,0.922,2.266
	c0,0.42,0.02,0.74,0.02,0.941c0,0.2,0,0.521-0.02,0.951c-0.03,1.002-0.331,1.754-0.901,2.266c-0.562,0.5-1.343,0.761-2.355,0.761
	c-1.002,0-1.804-0.25-2.364-0.761"/>
<path fill="#71717C" d="M139.307,77.556c-0.061-0.051-0.08-0.101-0.08-0.181v-7.234c0-0.08,0.02-0.15,0.069-0.2
	c0.051-0.051,0.101-0.08,0.201-0.08h0.861c0.141,0,0.251,0.07,0.32,0.2l3.177,4.909v-4.829c0-0.08,0.02-0.15,0.07-0.2
	c0.05-0.051,0.1-0.08,0.2-0.08h0.952c0.07,0,0.14,0.029,0.2,0.08c0.04,0.05,0.06,0.12,0.06,0.2v7.214c0,0.081-0.02,0.15-0.069,0.201
	c-0.061,0.061-0.131,0.08-0.201,0.08h-0.881c-0.141,0-0.261-0.051-0.331-0.181l-3.177-4.81v4.729c0,0.07-0.02,0.141-0.069,0.2
	c-0.051,0.051-0.101,0.07-0.201,0.07h-0.951c-0.061,0-0.121,0-0.171-0.07"/>
<path fill="#71717C" d="M146.822,77.556c-0.05-0.051-0.08-0.101-0.08-0.181v-7.244c0-0.08,0.03-0.15,0.08-0.2
	c0.05-0.041,0.101-0.07,0.2-0.07h1.032c0.08,0,0.141,0.029,0.2,0.08c0.04,0.04,0.07,0.1,0.07,0.2v6.163h3.507
	c0.101,0,0.16,0.029,0.2,0.08c0.061,0.049,0.101,0.1,0.101,0.199v0.803c0,0.06-0.04,0.119-0.101,0.17c-0.04,0.061-0.1,0.08-0.2,0.08
	h-4.81c-0.1,0-0.15,0-0.2-0.07"/>
<path fill="#71717C" d="M152.944,77.556c-0.06-0.051-0.08-0.101-0.08-0.181v-7.244c0-0.08,0.021-0.15,0.08-0.2
	c0.051-0.041,0.101-0.07,0.181-0.07h1.072c0.07,0,0.14,0.029,0.18,0.08c0.051,0.04,0.07,0.1,0.07,0.2v7.234
	c0,0.07-0.02,0.13-0.07,0.181c-0.05,0.061-0.1,0.08-0.2,0.08h-1.062c-0.07,0-0.131,0-0.181-0.07"/>
<path fill="#71717C" d="M155.94,77.556c-0.05-0.051-0.08-0.101-0.08-0.181v-7.234c0-0.08,0.021-0.15,0.07-0.2
	c0.05-0.051,0.1-0.08,0.2-0.08h0.861c0.141,0,0.251,0.07,0.321,0.2l3.176,4.909v-4.829c0-0.08,0.021-0.15,0.07-0.2
	c0.05-0.051,0.101-0.08,0.2-0.08h0.952c0.07,0,0.141,0.029,0.2,0.08c0.04,0.05,0.07,0.12,0.07,0.2v7.214
	c0,0.081-0.03,0.15-0.08,0.201c-0.06,0.061-0.12,0.08-0.2,0.08h-0.872c-0.15,0-0.261-0.051-0.341-0.181l-3.176-4.81v4.729
	c0,0.07-0.021,0.141-0.07,0.2c-0.04,0.051-0.101,0.07-0.2,0.07H156.1c-0.08,0-0.14,0-0.2-0.07"/>
<path fill="#71717C" d="M163.455,77.556c-0.05-0.051-0.08-0.101-0.08-0.181v-7.234c0-0.08,0.021-0.15,0.07-0.2
	c0.05-0.051,0.12-0.08,0.2-0.08h4.891c0.1,0,0.149,0.029,0.2,0.08c0.06,0.05,0.08,0.12,0.08,0.2v0.741
	c0,0.101-0.021,0.15-0.08,0.201c-0.051,0.05-0.101,0.07-0.2,0.07h-3.638v1.943h3.407c0.069,0,0.14,0.02,0.2,0.07
	c0.04,0.061,0.07,0.12,0.07,0.2v0.701c0,0.081-0.03,0.15-0.081,0.2c-0.05,0.041-0.12,0.07-0.2,0.07h-3.406v2.004h3.737
	c0.07,0,0.141,0.03,0.2,0.07c0.04,0.04,0.07,0.101,0.07,0.201v0.74c0,0.081-0.03,0.15-0.08,0.201c-0.061,0.04-0.131,0.061-0.2,0.061
	h-4.99c-0.08,0-0.141,0-0.2-0.07"/>
<path fill="#71717C" d="M172.243,77.556c-0.061-0.051-0.08-0.101-0.08-0.181v-7.234c0-0.08,0.02-0.15,0.07-0.2
	c0.04-0.051,0.1-0.08,0.18-0.08h4.83c0.1,0,0.15,0.029,0.2,0.08c0.061,0.05,0.08,0.12,0.08,0.2v0.802c0,0.07-0.02,0.141-0.08,0.2
	c-0.05,0.04-0.101,0.07-0.2,0.07h-3.547v2.084h3.326c0.101,0,0.15,0.021,0.2,0.07c0.051,0.06,0.08,0.12,0.08,0.2v0.802
	c0,0.06-0.029,0.13-0.08,0.181c-0.05,0.05-0.12,0.08-0.2,0.08h-3.326v2.745c0,0.08-0.03,0.141-0.08,0.2
	c-0.051,0.051-0.121,0.07-0.201,0.07h-1.002c-0.07,0-0.13,0-0.18-0.07"/>
<path fill="#71717C" d="M178.595,77.556c-0.061-0.051-0.08-0.101-0.08-0.181v-7.244c0-0.08,0.02-0.15,0.08-0.2
	c0.05-0.041,0.101-0.07,0.181-0.07h1.082c0.07,0,0.13,0.029,0.181,0.08c0.05,0.04,0.069,0.1,0.069,0.2v7.234
	c0,0.07-0.02,0.13-0.069,0.181c-0.051,0.061-0.101,0.08-0.201,0.08h-1.062c-0.07,0-0.131,0-0.181-0.07"/>
<path fill="#71717C" d="M181.592,77.556c-0.05-0.051-0.08-0.101-0.08-0.181v-7.244c0-0.08,0.02-0.15,0.08-0.2
	c0.05-0.041,0.101-0.07,0.2-0.07h1.032c0.08,0,0.141,0.029,0.2,0.08c0.04,0.04,0.061,0.1,0.061,0.2v6.163h3.526
	c0.08,0,0.141,0.029,0.201,0.08c0.05,0.049,0.069,0.1,0.069,0.199v0.803c0,0.06,0,0.119-0.06,0.17c-0.061,0.061-0.12,0.08-0.2,0.08
	h-4.83c-0.08,0-0.141,0-0.2-0.07"/>
<path fill="#71717C" d="M187.704,77.556c-0.051-0.051-0.07-0.101-0.07-0.181v-7.234c0-0.08,0.02-0.15,0.07-0.2
	c0.05-0.051,0.1-0.08,0.2-0.08h4.89c0.101,0,0.16,0.029,0.2,0.08c0.061,0.05,0.101,0.12,0.101,0.2v0.741
	c0,0.101-0.04,0.15-0.101,0.201c-0.04,0.05-0.1,0.07-0.2,0.07h-3.637v1.943h3.406c0.08,0,0.141,0.02,0.2,0.07
	c0.051,0.061,0.07,0.12,0.07,0.2v0.701c0,0.081-0.02,0.15-0.08,0.2c-0.05,0.041-0.101,0.07-0.2,0.07h-3.387v2.004h3.717
	c0.081,0,0.15,0.03,0.201,0.07c0.05,0.04,0.07,0.101,0.07,0.201v0.74c0,0.081-0.021,0.15-0.07,0.201
	c-0.051,0.04-0.12,0.061-0.201,0.061h-4.989c-0.07,0-0.141,0-0.2-0.07"/>
<path fill="#71717C" d="M196.491,77.556c-0.05-0.051-0.08-0.101-0.08-0.181v-7.234c0-0.08,0.03-0.15,0.07-0.2
	c0.04-0.051,0.101-0.08,0.2-0.08h4.88c0.101,0,0.15,0.029,0.2,0.08c0.061,0.05,0.08,0.12,0.08,0.2v0.741
	c0,0.101-0.02,0.15-0.08,0.201c-0.05,0.05-0.1,0.07-0.2,0.07h-3.638v1.943h3.407c0.07,0,0.141,0.02,0.2,0.07
	c0.04,0.061,0.07,0.12,0.07,0.2v0.701c0,0.081-0.02,0.15-0.07,0.2c-0.05,0.041-0.12,0.07-0.2,0.07h-3.407v2.004h3.738
	c0.08,0,0.15,0.03,0.2,0.07c0.06,0.04,0.08,0.101,0.08,0.201v0.74c0,0.081-0.021,0.15-0.08,0.201c-0.05,0.04-0.12,0.061-0.2,0.061
	h-4.98c-0.1,0-0.15,0-0.2-0.07"/>
<path fill="#71717C" d="M202.403,77.576c-0.061-0.05-0.08-0.1-0.08-0.17c0-0.03,0-0.07,0.04-0.141l2.484-3.607l-2.324-3.426
	c-0.03-0.051-0.04-0.101-0.04-0.141c0-0.061,0.021-0.121,0.07-0.16c0.05-0.051,0.1-0.07,0.16-0.07h1.172
	c0.131,0,0.251,0.07,0.341,0.2l1.634,2.385l1.633-2.374c0.08-0.141,0.2-0.201,0.341-0.201h1.103c0.06,0,0.1,0,0.16,0.061
	c0.05,0.039,0.07,0.1,0.07,0.16c0,0.029,0,0.08-0.04,0.141l-2.335,3.437l2.485,3.606c0.029,0.041,0.04,0.08,0.04,0.131
	c0,0.061-0.03,0.12-0.08,0.17c-0.04,0.041-0.101,0.061-0.171,0.061h-1.183c-0.13,0-0.25-0.051-0.351-0.2l-1.753-2.485l-1.733,2.505
	c-0.101,0.13-0.201,0.2-0.341,0.2h-1.152c-0.061,0-0.101-0.029-0.16-0.07"/>
<path fill="#71717C" d="M210.339,76.964c-0.561-0.521-0.852-1.262-0.901-2.225c0-0.199,0-0.521,0-0.981c0-0.45,0-0.802,0-1.002
	c0.05-0.942,0.351-1.683,0.901-2.204c0.571-0.531,1.363-0.802,2.375-0.802c0.642,0,1.223,0.101,1.703,0.341
	c0.501,0.23,0.872,0.531,1.143,0.932s0.4,0.842,0.431,1.322v0.021c0,0.07-0.02,0.12-0.07,0.15c-0.05,0.04-0.1,0.06-0.16,0.06h-1.082
	c-0.101,0-0.15-0.02-0.2-0.07c-0.04-0.039-0.08-0.119-0.101-0.22c-0.12-0.461-0.301-0.782-0.581-0.972
	c-0.271-0.181-0.642-0.281-1.103-0.281c-1.052,0-1.603,0.602-1.643,1.783c0,0.201,0,0.502,0,0.922c0,0.401,0,0.732,0,0.942
	c0.05,1.183,0.601,1.773,1.653,1.773c0.431,0,0.801-0.101,1.072-0.28c0.28-0.201,0.471-0.501,0.581-0.973
	c0.029-0.1,0.069-0.18,0.1-0.22c0.061-0.04,0.12-0.06,0.2-0.06h1.103c0.05,0,0.101,0.02,0.16,0.069
	c0.061,0.04,0.08,0.101,0.07,0.161c-0.02,0.5-0.16,0.932-0.431,1.322c-0.271,0.4-0.642,0.701-1.133,0.932
	c-0.48,0.221-1.062,0.33-1.703,0.33c-1.032,0.021-1.823-0.24-2.385-0.761"/>
<path fill="#71717C" d="M217.062,77.556c-0.05-0.051-0.07-0.101-0.07-0.181v-7.234c0-0.08,0.021-0.15,0.07-0.2
	c0.05-0.051,0.101-0.08,0.2-0.08h1.002c0.101,0,0.16,0.029,0.2,0.08c0.061,0.05,0.101,0.12,0.101,0.2v2.856h3.227v-2.856
	c0-0.08,0.03-0.15,0.08-0.2c0.05-0.051,0.101-0.08,0.2-0.08h1.022c0.08,0,0.14,0.029,0.2,0.08c0.04,0.05,0.061,0.12,0.061,0.2v7.234
	c0,0.07,0,0.13-0.061,0.181c-0.05,0.061-0.101,0.08-0.2,0.08h-1.022c-0.08,0-0.14,0-0.2-0.07c-0.04-0.05-0.07-0.1-0.07-0.18v-2.967
	h-3.236v2.956c0,0.07-0.03,0.13-0.08,0.181c-0.05,0.061-0.12,0.08-0.2,0.08h-1.022c-0.07,0-0.13,0-0.2-0.07"/>
<path fill="#71717C" d="M226.491,74.791h2.505l-1.252-3.406L226.491,74.791z M224.116,77.576c-0.04-0.05-0.06-0.1-0.06-0.17
	l0.03-0.1l2.665-7.165c0.06-0.181,0.2-0.28,0.381-0.28h1.223c0.2,0,0.33,0.1,0.4,0.28l2.665,7.165l0.021,0.1
	c0,0.07-0.021,0.12-0.07,0.17c-0.04,0.041-0.101,0.061-0.15,0.061h-0.981c-0.161,0-0.271-0.061-0.331-0.2l-0.501-1.343H226.1
	l-0.501,1.343c-0.061,0.14-0.16,0.2-0.32,0.2h-0.982c-0.07,0-0.13,0-0.17-0.051"/>
<path fill="#71717C" d="M232.213,77.556c-0.05-0.051-0.08-0.101-0.08-0.181v-7.234c0-0.08,0.03-0.15,0.08-0.2
	c0.04-0.051,0.1-0.08,0.2-0.08h0.852c0.141,0,0.251,0.07,0.321,0.2l3.176,4.909v-4.829c0-0.08,0.021-0.15,0.061-0.2
	c0.05-0.051,0.1-0.08,0.2-0.08h0.952c0.1,0,0.16,0.029,0.2,0.08c0.06,0.05,0.1,0.12,0.1,0.2v7.214c0,0.081-0.04,0.15-0.1,0.201
	c-0.04,0.061-0.101,0.08-0.181,0.08h-0.872c-0.149,0-0.26-0.051-0.34-0.181l-3.156-4.81v4.729c0,0.07-0.021,0.141-0.07,0.2
	c-0.04,0.051-0.101,0.07-0.2,0.07h-0.942c-0.07,0-0.141,0-0.2-0.07"/>
<path fill="#71717C" d="M240.308,76.955c-0.571-0.521-0.871-1.252-0.901-2.204c-0.021-0.2-0.021-0.552-0.021-1.022
	c0-0.461,0-0.801,0.021-1.021c0.03-0.902,0.33-1.633,0.901-2.154c0.602-0.531,1.383-0.781,2.385-0.781c0.682,0,1.272,0.1,1.764,0.35
	c0.501,0.23,0.862,0.521,1.103,0.862c0.261,0.341,0.4,0.681,0.4,1.002c0,0.08,0,0.14-0.06,0.181c-0.04,0.04-0.101,0.07-0.171,0.07
	h-1.172c-0.07,0-0.131,0-0.16-0.041c-0.04-0.029-0.07-0.08-0.101-0.14c-0.101-0.28-0.301-0.501-0.551-0.702
	c-0.261-0.199-0.602-0.3-1.053-0.3c-0.521,0-0.922,0.15-1.202,0.431c-0.301,0.271-0.461,0.701-0.471,1.303
	c0,0.2-0.021,0.531-0.021,0.962c0,0.44,0.021,0.771,0.03,1.002c0,0.601,0.17,1.032,0.461,1.303c0.301,0.3,0.701,0.44,1.202,0.44
	c0.531,0,0.962-0.141,1.272-0.42c0.321-0.281,0.481-0.702,0.481-1.273v-0.34h-1.353c-0.07,0-0.141-0.021-0.2-0.07
	c-0.041-0.051-0.07-0.101-0.07-0.201v-0.601c0-0.07,0.029-0.13,0.08-0.181c0.07-0.05,0.13-0.08,0.2-0.08h2.665
	c0.08,0,0.15,0.03,0.2,0.08c0.051,0.051,0.081,0.1,0.081,0.2v1.112c0,0.621-0.141,1.162-0.421,1.604
	c-0.271,0.471-0.662,0.821-1.163,1.063c-0.501,0.24-1.102,0.37-1.763,0.37c-1.022,0-1.804-0.271-2.375-0.802"/>
<path fill="#71717C" d="M247.192,77.556c-0.06-0.051-0.1-0.101-0.1-0.181v-7.234c0-0.08,0.029-0.15,0.08-0.2
	c0.05-0.051,0.1-0.08,0.2-0.08h4.89c0.101,0,0.15,0.029,0.2,0.08c0.061,0.05,0.08,0.12,0.08,0.2v0.741c0,0.101-0.02,0.15-0.08,0.201
	c-0.05,0.05-0.1,0.07-0.2,0.07h-3.637v1.943h3.406c0.07,0,0.141,0.02,0.2,0.07c0.04,0.061,0.07,0.12,0.07,0.2v0.701
	c0,0.081-0.03,0.15-0.08,0.2c-0.05,0.041-0.12,0.07-0.2,0.07h-3.407v2.004h3.737c0.08,0,0.15,0.03,0.201,0.07
	c0.06,0.04,0.08,0.101,0.08,0.201v0.74c0,0.081-0.021,0.15-0.08,0.201c-0.051,0.04-0.121,0.061-0.201,0.061h-4.979
	c-0.08,0-0.141,0-0.2-0.07"/>
<path fill="#0583FF" d="M1.001,17.767h21.143c0.842,0,1.522,0.682,1.522,1.503c0,0.842-0.681,1.523-1.503,1.523H1.001
	c-0.852,0-1.522-0.681-1.522-1.503c0-0.841,0.671-1.523,1.503-1.523"/>
<path fill="#0583FF" d="M7.434,26.674h15.109c0.832,0,1.503,0.671,1.503,1.503c0,0.842-0.671,1.503-1.503,1.503H7.414
	c-0.832,0-1.503-0.662-1.503-1.503c0-0.832,0.671-1.503,1.503-1.503"/>
<path fill="#0583FF" d="M1.001,36.063h12.095c0.831,0,1.503,0.682,1.503,1.503c0,0.841-0.672,1.523-1.503,1.523H1.001
	c-0.831,0-1.503-0.682-1.503-1.503C-0.502,36.745,0.17,36.063,1.001,36.063"/>
<path fill="#0583FF" d="M7.434,44.961h6.042c0.831,0,1.503,0.681,1.503,1.503c0,0.842-0.672,1.523-1.503,1.523H7.434
	c-0.832,0-1.504-0.681-1.504-1.503C5.93,45.642,6.602,44.961,7.434,44.961"/>
<linearGradient id="SVGID_1_" gradientUnits="userSpaceOnUse" x1="-23.5535" y1="268.8276" x2="-22.5535" y2="268.8276" gradientTransform="matrix(-20.9308 -37.3756 -38.1832 31.0911 9835.4238 -9164.6641)">
	<stop  offset="0" style="stop-color:#0CB9FF"/>
	<stop  offset="1" style="stop-color:#0583FF"/>
</linearGradient>
<path fill="url(#SVGID_1_)" d="M48.345,26.705c-0.4,0.731-1.343,0.972-2.064,0.561l-11.783-6.793L12.624,58.388
	c-0.431,0.73-0.18,1.652,0.542,2.074l39.238,22.645c0.721,0.432,1.643,0.181,2.063-0.541l28.697-49.699
	c0.401-0.731,0.171-1.653-0.551-2.074L55.139,14.941L48.345,26.705z"/>
<path fill="#0583FF" d="M52.604,13.428l-6.053,10.461l-10.461-6.042L52.604,13.428z"/>
<g>
	<defs>
		<polygon id="SVGID_2_" points="30.66,32.606 61.802,32.606 61.802,63.769 30.64,63.769 		"/>
	</defs>
	<clipPath id="SVGID_3_">
		<use xlink:href="#SVGID_2_"  overflow="visible"/>
	</clipPath>
	<g opacity="0.3" clip-path="url(#SVGID_3_)">
		<g>
			<path fill="#FFFFFF" d="M46.221,32.606c8.617,0,15.581,6.974,15.581,15.571c0,8.617-6.974,15.592-15.581,15.592
				c-8.598,0-15.571-6.975-15.571-15.582c0-8.587,6.964-15.561,15.562-15.561"/>
		</g>
	</g>
</g>
<path fill="#FFFFFF" d="M42.885,50.071l12.695-2.064c0.762-0.13,1.503,0.351,1.703,1.103l0.03,0.13
	c0.221,0.801-0.261,1.643-1.062,1.854L43.125,54.6l-1.463,0.401c-0.802,0.22-1.633-0.261-1.854-1.063l-2.345-8.758
	c-0.221-0.801,0.251-1.633,1.063-1.843l0.17-0.05c0.731-0.2,1.503,0.18,1.784,0.902L42.885,50.071z"/>
</svg>
