<?xml version="1.0" standalone="no"?>
<!DOCTYPE svg PUBLIC "-//W3C//DTD SVG 20010904//EN"
 "http://www.w3.org/TR/2001/REC-SVG-20010904/DTD/svg10.dtd">
<svg version="1.0" xmlns="http://www.w3.org/2000/svg"
 width="360.000000pt" height="360.000000pt" viewBox="0 0 360.000000 360.000000"
 preserveAspectRatio="xMidYMid meet">
<metadata>
Created by potrace 1.14, written by Peter Selinger 2001-2017
</metadata>
<g transform="translate(0.000000,360.000000) scale(0.100000,-0.100000)"
fill="#000000" stroke="none">
<path d="M219 3209 c-81 -15 -132 -51 -187 -134 l-27 -40 -2 -1210 -2 -1210
23 -50 c30 -62 76 -108 140 -135 l48 -22 1579 1 c1056 0 1592 4 1618 11 62 16
126 72 158 137 l28 58 0 1179 c0 927 -3 1190 -13 1229 -17 68 -69 129 -140
164 l-57 28 -1566 0 c-861 0 -1581 -3 -1600 -6z"/>
</g>
</svg>
